<svg width="49" height="49" viewBox="0 0 49 49" fill="none" xmlns="http://www.w3.org/2000/svg">
<path d="M24.5837 28.265C11.5094 28.265 0.911499 27.9452 0.911499 37.3995C0.911499 46.8496 11.5094 49 24.5837 49C37.6581 49 48.256 46.8496 48.256 37.3995C48.256 27.9466 37.6581 28.265 24.5837 28.265Z" fill="#D99E82"/>
<path d="M47.5626 28.9826C47.5626 28.9826 36.0956 27.5841 24.5838 27.5244C13.0721 27.5841 1.60498 28.9826 1.60498 28.9826C0.470689 38.184 9.88824 41.9745 24.5838 41.9745C39.2794 41.9745 48.6969 38.184 47.5626 28.9826Z" fill="#662113"/>
<path d="M46.7479 25.3044L2.30396 26.2226C0.769251 26.2226 -0.515723 29.3906 1.11247 30.2192C13.2618 34.068 23.0282 37.9624 23.0282 37.9624C24.3703 38.7185 24.8238 38.7213 26.1674 37.9666C26.1674 37.9666 39.6533 32.4691 48.3161 30.1595C49.5452 29.8326 48.2812 25.3044 46.7479 25.3044Z" fill="#FFCC4D"/>
<path d="M47.9183 25.4238C45.2675 22.9352 45.4209 24.2598 43.3895 23.6756C42.618 23.4539 37.0972 16.1841 24.514 16.1841H24.4861C11.9028 16.1841 6.38203 23.4539 5.61049 23.6756C3.57909 24.2598 3.73256 22.9352 1.08169 25.4238C-0.134915 26.5665 -0.464181 27.1606 0.819397 27.4562C2.75314 27.9011 2.57734 29.0935 3.96277 29.5086C5.63979 30.0103 6.32902 29.0935 9.0329 29.4688C11.3392 29.7886 11.4898 32.8358 13.817 32.8358C16.1442 32.8358 16.1442 31.6988 18.47 31.6988C20.7958 31.6988 22.1714 34.7488 24.4986 34.7488C26.8258 34.7488 28.2001 31.6988 30.5273 31.6988C32.8544 31.6988 32.8544 32.8358 35.1802 32.8358C37.5074 32.8358 37.6581 29.7886 39.9643 29.4688C42.6682 29.095 43.3588 30.0103 45.0345 29.5086C46.4199 29.0935 46.2441 27.9025 48.1778 27.4562C49.4642 27.162 49.1363 26.5665 47.9183 25.4238Z" fill="#77B255"/>
<path d="M47.0144 22.7348C47.0144 26.9759 36.9718 28.9785 24.5838 28.9785C12.1959 28.9785 2.15332 26.9759 2.15332 22.7348C2.15332 15.0557 3.50108 15.0557 24.5838 15.0557C45.6666 15.0557 47.0144 15.0571 47.0144 22.7348Z" fill="#DD2E44"/>
<path d="M24.5837 0C11.5094 0 0.911499 6.24083 0.911499 15.6937C0.911499 24.3991 11.5094 24.7544 24.5837 24.7544C37.6581 24.7544 48.256 24.3991 48.256 15.6937C48.256 6.23941 37.6581 0 24.5837 0Z" fill="#D99E82"/>
<path d="M14.516 4.50688C14.3509 4.39938 14.1666 4.32604 13.9737 4.29107C13.7808 4.25611 13.5831 4.26018 13.3917 4.30308C13.2004 4.34597 13.0192 4.42684 12.8585 4.54106C12.6978 4.65529 12.5608 4.80063 12.4553 4.9688C12.3497 5.13697 12.2777 5.32466 12.2434 5.52117C12.2091 5.71768 12.2131 5.91915 12.2552 6.11408C12.2973 6.30901 12.3767 6.49358 12.4888 6.65726C12.6009 6.82094 12.7436 6.96052 12.9087 7.06803C13.6035 7.52141 15.3642 7.85968 15.8093 7.15188C16.253 6.44409 15.2108 4.95885 14.516 4.50688ZM28.0968 3.03586C27.3127 3.29453 25.9356 4.46567 26.1909 5.26443C26.4463 6.06318 28.2335 6.18541 29.0176 5.92674C29.2039 5.86515 29.3765 5.76677 29.5256 5.63723C29.6746 5.50768 29.7971 5.34951 29.8861 5.17173C29.9751 4.99396 30.0288 4.80007 30.0443 4.60113C30.0597 4.40219 30.0366 4.2021 29.9761 4.01228C29.9156 3.82246 29.8191 3.64663 29.6919 3.49484C29.5647 3.34304 29.4095 3.21824 29.235 3.12757C29.0604 3.0369 28.8701 2.98214 28.6748 2.9664C28.4795 2.95067 28.2831 2.97427 28.0968 3.03586ZM43.3169 13.0346C42.6863 12.4945 41.1056 13.3543 40.574 13.9968C40.3316 14.3069 40.2177 14.7011 40.2565 15.0956C40.2953 15.49 40.4838 15.8534 40.7817 16.1083C41.0797 16.3633 41.4636 16.4897 41.8516 16.4606C42.2397 16.4314 42.6013 16.2491 42.8593 15.9524C43.3909 15.3086 43.949 13.5746 43.3169 13.0346ZM38.2343 5.92816C37.9008 5.7202 37.5006 5.6538 37.1196 5.74321C36.7386 5.83263 36.4073 6.07073 36.1968 6.40635C35.9863 6.74197 35.9134 7.14832 35.9939 7.53808C36.0743 7.92783 36.3016 8.26988 36.627 8.49073C37.3218 8.94411 39.0825 9.28238 39.5262 8.57458C39.9713 7.86536 38.9291 6.38013 38.2343 5.92816ZM17.3064 15.8771C17.1411 15.7696 16.9567 15.6962 16.7636 15.6613C16.5705 15.6264 16.3726 15.6306 16.1811 15.6736C15.9896 15.7166 15.8083 15.7977 15.6475 15.9121C15.4868 16.0265 15.3498 16.1721 15.2443 16.3404C15.1388 16.5086 15.0668 16.6962 15.0326 16.8927C14.9983 17.0892 15.0025 17.2906 15.0447 17.4854C15.0869 17.6803 15.1665 17.8647 15.2788 18.0282C15.3911 18.1917 15.5339 18.331 15.6991 18.4383C16.3939 18.8916 18.1546 19.2313 18.5983 18.5221C19.0434 17.8143 18.0012 16.3291 17.3064 15.8771ZM21.5561 9.0436C21.0873 9.73434 20.6911 11.5152 21.3706 11.9928C22.0486 12.4703 23.5429 11.4612 24.0117 10.7705C24.2199 10.4385 24.2936 10.0371 24.2172 9.65092C24.1407 9.26471 23.9202 8.92378 23.6019 8.69996C23.2836 8.47613 22.8925 8.38687 22.5109 8.45097C22.1293 8.51507 21.787 8.72753 21.5561 9.0436ZM32.6535 15.8771C32.4882 15.7696 32.3038 15.6962 32.1107 15.6613C31.9176 15.6264 31.7197 15.6306 31.5282 15.6736C31.3367 15.7166 31.1554 15.7977 30.9947 15.9121C30.8339 16.0265 30.6969 16.1721 30.5914 16.3404C30.4859 16.5086 30.4139 16.6962 30.3797 16.8927C30.3455 17.0892 30.3496 17.2906 30.3918 17.4854C30.4341 17.6803 30.5136 17.8647 30.6259 18.0282C30.7382 18.1917 30.881 18.331 31.0462 18.4383C31.741 18.8916 33.5018 19.2313 33.9454 18.5221C34.3905 17.8143 33.3483 16.3291 32.6535 15.8771ZM6.37362 10.3526C5.82391 10.9794 5.21142 12.6949 5.8267 13.2549C6.43919 13.8148 8.04646 13.0075 8.59616 12.3808C8.73506 12.2335 8.84342 12.0593 8.9148 11.8685C8.98617 11.6777 9.0191 11.4742 9.0116 11.2701C9.00411 11.0661 8.95636 10.8657 8.87119 10.6808C8.78602 10.496 8.66518 10.3305 8.51587 10.1942C8.36657 10.058 8.19186 9.95378 8.00217 9.8878C7.81247 9.82182 7.61167 9.79544 7.41175 9.81021C7.21183 9.82499 7.01688 9.88063 6.83852 9.97382C6.66016 10.067 6.50205 10.1958 6.37362 10.3526Z" fill="#FFE8B6"/>
</svg>
