<svg width="43" height="43" viewBox="0 0 43 43" fill="none" xmlns="http://www.w3.org/2000/svg">
<path fill-rule="evenodd" clip-rule="evenodd" d="M40.8282 13.8667C40.1639 10.1255 36.7436 6.987 32.9374 6.987H32.9291C32.4279 6.98767 31.9427 6.80979 31.5777 6.46696C30.8808 5.81249 29.384 5.24935 28.0763 4.80458C27.2677 4.52956 26.7231 3.77725 26.7231 2.92317V2C26.7231 0.895432 25.8276 0 24.7231 0H18.2768C17.1722 0 16.2768 0.89543 16.2768 2V2.92317C16.2768 3.77725 15.7321 4.52956 14.9235 4.80458C13.6159 5.24935 12.1191 5.81249 11.4221 6.46696C11.0571 6.80979 10.5719 6.98767 10.0707 6.987H10.0625C6.25612 6.987 2.83595 10.1255 2.17164 13.8667C2.03946 14.6112 1.41291 16.579 0.787144 18.576C0.387067 19.8527 1.34416 21.1369 2.68211 21.1339L4.80543 21.129C5.86043 21.1266 6.75172 21.944 6.77135 22.9988C6.77718 23.3116 6.77368 23.5639 6.75798 23.7258C6.72542 24.0614 6.71507 24.4037 6.72861 24.751C6.78624 26.2339 7.28389 27.6074 8.09216 28.7479C8.94787 29.9552 9.43601 31.3834 9.43601 32.8624V41C9.43601 42.1046 10.3314 43 11.436 43H20.2379V30.6128C20.2379 29.9157 20.803 29.3507 21.5 29.3507C22.197 29.3507 22.7621 29.9157 22.7621 30.6128V43H31.564C32.6686 43 33.564 42.1046 33.564 41V32.8625C33.564 31.3834 34.0521 29.9553 34.9078 28.7479C35.7161 27.6075 36.2137 26.234 36.2714 24.751C36.2848 24.4038 36.2746 24.0615 36.242 23.7258C36.2263 23.564 36.2228 23.3117 36.2286 22.9989C36.2483 21.944 37.1396 21.1267 38.1945 21.1291L40.3172 21.1339C41.6553 21.1369 42.6125 19.8523 42.2124 18.5754C41.5865 16.5782 40.9602 14.6097 40.8282 13.8667ZM13.2896 24.3095C15.5415 22.6724 16.8861 20.0349 16.8861 17.2539V13.6625C16.8861 12.9654 16.321 12.4004 15.624 12.4004C14.927 12.4004 14.3619 12.9654 14.3619 13.6625V17.2539C14.3619 19.232 13.4056 21.1081 11.8037 22.2726L11.4844 22.5047C10.9205 22.9145 10.7963 23.7042 11.2071 24.2673C11.6169 24.8291 12.4042 24.953 12.9667 24.5442L13.2896 24.3095ZM20.2378 23.3602C20.2378 24.0572 20.8029 24.6223 21.4999 24.6223C22.1969 24.6223 22.762 24.0572 22.762 23.3602V18.4801C22.762 17.783 22.1969 17.218 21.4999 17.218C20.8029 17.218 20.2378 17.783 20.2378 18.4801V23.3602ZM29.7103 24.3095L30.033 24.5441C30.5955 24.953 31.3829 24.8291 31.7927 24.2673C32.2035 23.7042 32.0793 22.9145 31.5154 22.5047L31.1961 22.2726C29.5943 21.1081 28.6379 19.232 28.6379 17.2539V13.6625C28.6379 12.9654 28.0729 12.4004 27.3758 12.4004C26.6788 12.4004 26.1138 12.9654 26.1138 13.6625V17.2539C26.1138 20.0349 27.4582 22.6724 29.7103 24.3095Z" fill="white" fill-opacity="0.15"/>
</svg>
