<svg width="48" height="44" viewBox="0 0 48 44" fill="none" xmlns="http://www.w3.org/2000/svg">
<path d="M29.4347 6.80894L35.0682 1.17322C35.4736 0.76795 36.0234 0.540283 36.5966 0.540283C37.1698 0.540283 37.7196 0.76795 38.125 1.17322L47.2973 10.3456C47.7026 10.751 47.9303 11.3007 47.9303 11.874C47.9303 12.4472 47.7026 12.9969 47.2973 13.4023L39.1302 21.5695V41.3972C39.1302 41.9705 38.9024 42.5204 38.497 42.9258C38.0916 43.3312 37.5418 43.5589 36.9684 43.5589H11.0272C10.4539 43.5589 9.90405 43.3312 9.49864 42.9258C9.09323 42.5204 8.86548 41.9705 8.86548 41.3972V21.5738L0.696168 13.4023C0.2909 12.9969 0.0632324 12.4472 0.0632324 11.874C0.0632324 11.3007 0.2909 10.751 0.696168 10.3456L9.86637 1.17322C10.2718 0.76795 10.8215 0.540283 11.3947 0.540283C11.968 0.540283 12.5177 0.76795 12.9231 1.17322L18.561 6.80894H29.4347Z" fill="white" fill-opacity="0.15"/>
</svg>
