<svg width="43" height="30" viewBox="0 0 43 30" fill="none" xmlns="http://www.w3.org/2000/svg">
<path fill-rule="evenodd" clip-rule="evenodd" d="M6.68875 18.1146L8.1975 6.02336C8.30608 5.1535 8.59289 4.31539 9.04 3.56139C9.48712 2.80738 10.0849 2.15369 10.7961 1.64116C11.5073 1.12863 12.3165 0.768278 13.1732 0.582615C14.0299 0.396952 14.9157 0.389971 15.7752 0.562107C17.5964 0.927607 19.6385 1.66711 21.5 1.66711C23.3615 1.66711 25.4036 0.927607 27.2248 0.562107C28.0841 0.390298 28.9697 0.397528 29.8262 0.583345C30.6826 0.769162 31.4916 1.12957 32.2025 1.64207C32.9134 2.15457 33.511 2.80815 33.958 3.56199C34.405 4.31582 34.6918 5.15372 34.8004 6.02336L36.3134 18.1146C38.7274 18.7181 42.75 19.8869 42.75 23C42.75 26.3915 38.0474 27.5092 35.4825 28.0787C31.8317 28.8905 26.889 29.375 21.5 29.375C16.111 29.375 11.1683 28.8905 7.5175 28.0787C4.9505 27.5092 0.25 26.3915 0.25 23C0.25 19.8869 4.27263 18.7181 6.68875 18.1146ZM8.43762 23.9307C7.1095 23.6354 6.07887 23.3145 5.34575 23C6.07887 22.6855 7.1095 22.3625 8.43762 22.0692C11.7059 21.3425 16.3256 20.875 21.5 20.875C26.6744 20.875 31.2941 21.3425 34.5624 22.0692C35.8905 22.3646 36.9211 22.6855 37.6542 23C36.9211 23.3145 35.8905 23.6354 34.5624 23.9307C31.2941 24.6575 26.6744 25.125 21.5 25.125C16.3256 25.125 11.7059 24.6575 8.43762 23.9307Z" fill="white" fill-opacity="0.15"/>
</svg>
