<svg width="73" height="42" viewBox="0 0 73 42" fill="none" xmlns="http://www.w3.org/2000/svg">
<path d="M35.5 26.7C35.6 25.6 33.5 18.5 35.1 12.1C35.3 10.9 34.7 9.59998 33.5 9.49998C32.3 9.39998 30.1 9.59998 29 15.1C28.8 16.1 28.6 16.6 28.5 17.4L17.5 1.69998C16.8 0.699984 15.4 0.399984 14.4 1.09998C13.4 1.79998 13.1 3.19998 13.8 4.19998L20.3 13.5C20.9 14.4 19.8 15.3 19.1 14.6L11.4 3.59998C10.7 2.59998 9.29998 2.29998 8.29998 2.99998C7.29998 3.69998 6.99998 5.09998 7.69998 6.09998L15.5 17.3C15.9 18.1 14.8 18.9 14.2 18.1L7.39998 8.39998C6.69998 7.39998 5.29998 7.09998 4.29998 7.79998C3.29998 8.49998 2.99998 9.89998 3.69998 10.9L10.4 20.5C11 21.4 9.89998 22.2 9.19998 21.6L4.39998 14.8C3.69998 13.8 2.29998 13.5 1.29998 14.2C0.299978 14.9 -2.16961e-05 16.3 0.699978 17.3L12 33.4C14.3 36.7 18.2 38.1 21.9 37.5L23.7 40.1C24.4 41.1 25.8 41.4 26.8 40.7L34.2 35.5C35.2 34.8 35.5 33.4 34.8 32.4L33.5 30.5C34.5 29.6 35.1 28.5 35.2 27.2C35.5 27.2 35.5 26.9 35.5 26.7ZM71.4 14.3C70.4 13.6 69 13.8 68.3 14.9L63.5 21.7C62.8 22.3 61.7 21.5 62.3 20.6L69 11C69.7 9.99998 69.5 8.59998 68.4 7.89998C67.4 7.19998 66 7.39998 65.3 8.49998L58.7 18C58.1 18.8 57 18 57.4 17.2L65.1 6.09998C65.8 5.09998 65.6 3.69998 64.5 2.99998C63.5 2.29998 62.1 2.49998 61.4 3.59998L53.7 14.6C53 15.3 51.9 14.4 52.5 13.5L59 4.19998C59.7 3.19998 59.5 1.79998 58.4 1.09998C57.4 0.399984 56 0.599984 55.3 1.69998L44.3 17.4C44.2 16.6 44 16.1 43.8 15.1C42.7 9.59998 40.5 9.39998 39.3 9.49998C38.1 9.59998 37.5 10.9 37.7 12.1C39.3 18.4 37.3 25.5 37.3 26.7C37.3 26.9 37.3 27.2 37.4 27.4C37.6 28.6 38.1 29.8 39.1 30.7L37.8 32.6C37.1 33.6 37.3 35 38.4 35.7L45.8 40.9C46.8 41.6 48.2 41.4 48.9 40.3L50.7 37.7C54.4 38.3 58.3 36.9 60.6 33.6L71.9 17.5C72.7 16.4 72.5 15 71.4 14.3Z" fill="white" fill-opacity="0.15"/>
</svg>
