<svg width="36" height="44" viewBox="0 0 36 44" fill="none" xmlns="http://www.w3.org/2000/svg">
<path fill-rule="evenodd" clip-rule="evenodd" d="M18.0588 0.323486C20.0066 0.323654 21.8974 0.981114 23.4251 2.18946C24.9528 3.3978 26.028 5.08632 26.4767 6.98172C28.9672 7.43518 31.2197 8.74805 32.8417 10.6916C34.4637 12.6351 35.3524 15.0862 35.3529 17.6176V37.0735C35.3529 38.7935 34.6697 40.4431 33.4534 41.6593C32.2372 42.8755 30.5877 43.5588 28.8677 43.5588H7.25C5.53 43.5588 3.88044 42.8755 2.66421 41.6593C1.44798 40.4431 0.76471 38.7935 0.76471 37.0735V17.6176C0.76442 15.0859 1.65281 12.6345 3.27494 10.6908C4.89708 8.74703 7.15004 7.43438 9.64092 6.98172C10.0897 5.08632 11.1649 3.3978 12.6926 2.18946C14.2203 0.981114 16.111 0.323654 18.0588 0.323486ZM24.5441 34.9117H11.5735V39.2352H24.5441V34.9117ZM22.3824 26.2647H13.7353C13.2058 26.2647 12.6948 26.4591 12.2991 26.811C11.9034 27.1628 11.6506 27.6476 11.5887 28.1735L11.5735 28.4264V30.5882H24.5441V28.4264C24.5441 27.8969 24.3497 27.3859 23.9978 26.9902C23.646 26.5945 23.1611 26.3417 22.6353 26.2798L22.3824 26.2647ZM20.2206 15.4558H15.8971C15.3237 15.4558 14.7739 15.6836 14.3685 16.089C13.9631 16.4944 13.7353 17.0443 13.7353 17.6176C13.7353 18.1909 13.9631 18.7408 14.3685 19.1462C14.7739 19.5516 15.3237 19.7794 15.8971 19.7794H20.2206C20.7939 19.7794 21.3438 19.5516 21.7492 19.1462C22.1546 18.7408 22.3824 18.1909 22.3824 17.6176C22.3824 17.0443 22.1546 16.4944 21.7492 16.089C21.3438 15.6836 20.7939 15.4558 20.2206 15.4558ZM18.0588 4.64702C17.2999 4.64703 16.5544 4.84682 15.8971 5.22629C15.2399 5.60575 14.6941 6.15154 14.3147 6.80878H21.803C21.4235 6.15154 20.8778 5.60575 20.2205 5.22629C19.5633 4.84682 18.8177 4.64703 18.0588 4.64702Z" fill="white" fill-opacity="0.15"/>
</svg>
