<svg width="157" height="390" viewBox="0 0 157 390" fill="none" xmlns="http://www.w3.org/2000/svg">
<g clip-path="url(#clip0_20_1327)">
<mask id="path-1-inside-1_20_1327" fill="white">
<path fill-rule="evenodd" clip-rule="evenodd" d="M24.2731 218.872C24.2731 217.597 24.24 216.322 24.2267 215.047C24.2002 211.987 23.8492 208.92 24.6373 205.86C25.0811 204.126 24.995 202.271 25.1274 200.473C25.1738 199.88 25.1076 199.281 25.1672 198.694C25.4056 196.335 25.5711 193.977 25.4652 191.605C25.3658 189.342 25.1936 187.091 24.4651 184.936C24.187 184.133 24.2333 183.47 24.5181 182.73C25.5778 179.976 26.7235 177.254 27.6375 174.455C29.7965 167.844 31.8827 161.201 33.9556 154.564C35.2603 150.395 36.0881 146.161 35.9226 141.775C35.8828 140.659 36.055 139.537 36.0881 138.409C36.1279 137.045 36.1544 135.687 36.108 134.329C36.0815 133.506 36.2007 132.767 36.6378 132.034C37.9094 129.898 38.8565 127.609 39.7373 125.295C40.6711 122.84 41.4062 120.335 42.0222 117.797C42.095 117.479 42.1149 117.115 42.4791 116.835C42.9295 117.81 43.3534 118.722 43.764 119.646C43.8434 119.831 43.8368 120.054 43.8633 120.258C44.2541 123.79 44.6249 127.329 45.0157 130.867C45.2342 132.843 45.5852 134.807 45.7044 136.777C45.8369 139.027 45.7574 141.284 45.8038 143.535C45.8634 146.321 45.923 149.107 46.0621 151.886C46.1217 152.97 46.3998 154.048 46.625 155.119C46.7906 155.909 46.9032 156.668 46.6051 157.471C46.3005 158.275 46.0886 159.122 45.9031 159.951C45.115 163.509 44.5057 167.066 45.413 170.694C45.4991 171.057 45.4859 171.472 45.413 171.841C44.9826 173.996 44.5057 176.145 44.0819 178.293C42.7109 185.3 41.3202 192.325 40.0552 199.357C39.4327 202.819 39.0287 206.338 38.6644 209.845C38.1743 214.626 37.9756 219.427 38.0816 224.234C38.1478 227.199 38.267 230.157 38.4724 233.115C38.5849 234.702 38.9889 236.277 39.1545 237.858C39.638 242.461 40.5387 247.007 40.9427 251.61C41.2142 254.702 41.3599 257.749 40.797 260.822C40.0287 265.004 39.777 269.238 39.9426 273.477C39.9757 274.383 39.8631 275.224 39.5386 276.078C38.1213 279.834 37.3663 283.793 36.9756 287.701C35.5053 302.574 35.9027 317.404 36.9425 332.43C36.9425 332.43 37.4326 344.11 37.4326 346.756C37.4326 349.401 36.5849 353.227 35.3199 355.732C31.737 362.834 25.5778 369.337 20.2862 375.623C17.5377 378.894 17.1337 378.384 15.7827 379.417C14.5243 380.373 14.3521 380.883 13.6435 381.967C12.968 383 13.3587 383.752 13.3587 383.752C12.5507 385.856 14.0674 386.124 14.0674 386.124C15.0409 387.839 16.6569 387.297 16.6569 387.297C18.9219 389.477 20.2729 387.737 20.2729 387.737C22.8624 390.618 25.5314 389.993 28.6044 387.431C31.6774 384.861 31.3926 385.951 33.0549 385.32C40.2141 382.624 40.5519 375.821 46.731 372.468C53.5525 368.77 55.3009 364.76 54.4995 362.19C53.6915 359.621 53.2081 355.955 53.2081 355.955C53.9366 355.49 54.175 354.011 53.771 352.532C52.4729 347.795 52.963 347.234 53.9564 337.448C55.4466 328.548 56.7049 318.436 61.0958 310.735C62.6654 307.981 63.6986 304.793 64.0761 301.542C64.3476 299.119 64.3344 296.69 64.2615 294.261C64.1754 291.265 63.8244 288.294 63.3741 285.329C63.0429 283.13 62.7118 280.93 62.374 278.737C62.3012 278.252 62.3674 277.819 62.672 277.392C63.5264 276.174 64.0761 274.823 64.4801 273.42C65.2616 270.666 65.7119 267.861 65.7318 264.998C65.745 263.455 65.7914 261.912 65.9305 260.382C66.0298 259.216 66.0629 258.023 66.659 256.927C69.2419 252.164 71.3082 247.185 72.9043 242.034C74.454 237.068 75.5931 231.993 76.7852 226.937C77.7786 222.698 78.7853 218.452 79.7787 214.225C79.8449 214.633 79.8979 215.06 80.0039 215.481C80.3152 216.749 80.6529 218.012 80.9841 219.274C82.0768 223.526 83.2093 227.791 84.2491 232.05C86.3552 240.631 89.3156 249.092 93.7065 256.87C93.6932 256.87 93.6932 256.87 93.6733 256.882C93.8124 257.137 93.9316 257.405 94.0376 257.673C94.0707 257.819 94.1171 257.96 94.1369 258.106C94.4615 260.931 94.7462 262.85 94.7794 263.678H94.7926C94.7992 264.118 94.8191 264.552 94.8191 264.998C94.8323 267.121 95.0973 269.984 96.0774 273.42C96.4748 274.823 97.0311 276.18 97.8854 277.392C98.1172 277.723 98.9848 279.151 97.7397 286.196C97.2165 289.148 97.1503 292.151 97.1702 295.147C97.1834 297.583 97.2497 300.005 97.6139 302.421C98.104 305.654 99.2696 308.816 100.912 311.513C105.422 318.895 106.369 328.962 108.051 337.62C109.389 347.368 109.674 347.521 108.548 352.283C108.197 353.775 108.773 355.617 109.515 356.057C109.515 356.057 109.171 358.493 108.78 361.151C108.104 365.869 108.879 368.496 116.045 372.557C122.244 376.07 122.443 382.949 129.854 385.448C131.536 386.015 131.43 385.167 134.37 387.883C137.457 390.727 140.006 390.688 142.49 387.724C142.49 387.724 143.98 389.222 146.04 387.328C146.04 387.328 147.967 387.749 148.662 386.098C148.662 386.098 150.437 385.448 149.192 383.777C149.192 383.777 150.417 383.095 147.676 380.003C146.894 379.13 145.543 379.48 142.695 375.891C138.616 370.759 134.602 365.531 130.741 360.284C128.933 357.823 127.039 355.802 126.291 353.023C125.542 350.243 125.178 349.892 125.132 347.291C125.012 340.533 125.33 333.552 125.502 326.686C125.416 313.597 125.582 300.694 124.204 287.714C123.92 285.004 121.833 277.66 121.476 276.761C121.019 275.377 120.588 273.943 120.608 273.477C120.774 269.238 120.522 265.004 119.754 260.822C119.211 257.845 119.032 254.498 119.251 251.501C119.363 250.035 119.443 248.55 119.575 247.077C119.734 245.368 120.012 243.666 120.218 241.958C120.469 239.988 120.721 238.018 120.939 236.041C121.151 234.192 121.429 232.331 121.489 230.469C121.588 227.536 121.535 224.604 121.522 221.678C121.502 216.781 121.125 211.898 120.41 207.059C119.814 202.979 119.184 198.898 118.409 194.856C117.602 190.668 116.621 186.498 115.694 182.329C114.84 178.478 113.939 174.627 113.085 170.777C113.019 170.471 113.012 170.12 113.085 169.814C113.588 167.391 113.509 164.969 113.045 162.572C112.694 160.704 112.197 158.867 111.72 157.031C111.528 156.266 111.482 155.527 111.628 154.749C111.807 153.754 112.038 152.753 112.065 151.753C112.118 149.655 112.071 147.545 112.052 145.441C112.025 143.688 111.906 141.941 111.965 140.194C112.058 137.504 112.23 134.807 112.449 132.116C112.78 128.036 113.177 123.962 113.555 119.895C113.608 119.34 114.482 117.504 114.913 117.032C114.999 117.306 115.078 117.561 115.144 117.816C116.343 122.681 118.045 127.373 120.542 131.772C120.8 132.231 120.92 132.697 120.893 133.219C120.853 133.984 120.794 134.756 120.82 135.521C120.886 137.478 121.125 139.429 121.072 141.38C120.973 145.428 121.668 149.355 122.827 153.219C123.688 156.062 124.635 158.88 125.522 161.717C127.118 166.83 128.536 171.988 130.516 176.98C131.258 178.835 131.927 180.716 132.648 182.571C132.841 183.062 132.874 183.508 132.635 184.018C132.403 184.522 132.278 185.089 132.165 185.638C131.602 188.5 131.357 191.388 131.569 194.302C131.682 195.755 131.821 197.196 131.854 198.65C131.92 201.493 131.92 204.337 132.807 207.091C132.841 207.205 132.854 207.327 132.854 207.441C132.854 209.634 132.854 211.834 132.827 214.027C132.814 215.385 132.708 216.749 132.715 218.114C132.715 218.114 133.231 222.015 134.854 219.153C135.119 218.681 135.298 218.177 135.51 217.687C135.635 217.381 136.139 210.119 136.258 209.819C136.596 211.101 136.384 219.28 136.576 220.511C136.616 220.74 136.649 220.983 136.741 221.199C136.933 221.639 137.516 222.041 137.861 222.009C138.384 221.952 138.861 221.556 138.953 220.989C139.086 220.179 139.232 219.35 139.251 218.528C139.298 215.895 139.271 213.249 139.298 210.61C139.298 210.38 139.357 210.144 139.404 209.794C139.794 212.185 140.112 214.448 140.536 216.686C140.881 218.49 141.324 220.281 141.768 222.06C142.053 223.195 142.682 223.354 143.801 222.984C145.245 222.513 144.046 207.205 144.046 207.205C144.47 207.46 144.483 207.754 144.55 208.028C144.854 209.297 145.132 210.578 145.47 211.834C145.868 213.332 146.364 214.798 146.702 216.303C147.133 218.222 147.788 220.001 149.272 221.41C149.497 221.627 149.669 221.894 150.033 221.786C150.411 221.665 150.656 221.403 150.715 221.014C150.742 220.874 150.742 220.715 150.735 220.568C150.583 218.209 150.497 215.838 150.278 213.479C149.974 210.24 149.576 207.001 149.205 203.705C149.47 204.037 149.696 204.343 149.947 204.63C150.384 205.133 150.808 205.637 151.285 206.096C152.596 207.371 154.166 207.83 156.007 207.441C156.954 207.237 157.259 206.593 156.769 205.816C156.126 204.77 155.53 203.699 154.875 202.653C154 201.27 153.543 199.74 153.186 198.165C152.742 196.195 152.259 194.238 151.782 192.274C151.391 190.661 150.596 189.297 149.424 188.035C147.795 186.269 146.384 184.312 144.921 182.405C144.636 182.042 144.477 181.545 144.424 181.092C144.291 180.155 144.285 179.198 144.192 178.255C143.927 175.749 143.576 173.25 143.384 170.738C143.073 166.512 142.881 162.272 142.609 158.039C142.384 154.609 142.185 151.179 141.874 147.755C141.384 142.394 140.271 137.147 138.099 132.142C137.947 131.785 137.92 131.339 137.953 130.943C138.039 129.942 138.251 128.948 138.304 127.947C138.47 124.829 138.357 121.705 137.9 118.626C136.88 111.836 135.019 105.123 132.867 98.6012C132.682 98.021 132.556 97.3835 132.569 96.7778C132.609 95.8087 132.827 94.8461 132.907 93.877C132.993 92.8187 132.927 91.7413 133.066 90.6957C133.397 88.3177 133.311 85.9588 132.88 83.6127C132.192 79.7938 130.397 75.6116 128.066 71.8183C125.814 68.146 122.92 66.0741 119.701 64.0594C118.191 63.1223 116.621 62.4656 114.886 62.0129C113.124 61.5539 111.27 61.5412 109.555 60.8016C108.813 60.4829 108.012 60.3044 107.29 59.9346C104.27 58.4045 101.303 56.7724 98.2696 55.2806C96.0576 54.1904 93.7793 53.2532 91.5077 52.3224C90.7063 51.9909 90.6335 52.061 90.554 51.2832C90.1103 46.8332 91.0838 42.1473 91.0838 42.0007C91.0838 41.9688 91.0706 41.9497 91.064 41.9242C91.1037 41.8732 91.1434 41.8222 91.1832 41.7712C91.819 40.7894 92.3024 39.7566 92.4812 38.6026C92.6071 37.7929 92.7329 36.9833 92.8521 36.1672C93.7992 36.3011 94.7462 36.2246 95.2165 35.5743C95.5675 35.0834 95.6867 34.5224 95.9781 33.9869C96.2761 33.4258 96.7927 32.9859 97.2099 32.5142C98.0841 31.5132 98.2828 30.0915 98.3027 28.7527C98.3093 27.5477 98.5411 24.6916 96.8854 24.3792C96.5278 24.3154 96.0575 24.5896 95.6337 24.9211C95.6337 24.902 95.6337 24.8828 95.6403 24.8637C95.7993 23.6715 95.7728 22.4666 96.0708 21.2871C97.1371 17.0475 96.4682 12.8589 94.5343 9.33334C92.0375 4.7877 87.4082 1.35138 81.6199 0.344076C67.8378 -2.05306 56.3142 7.36972 58.003 21.0704C58.1487 22.2689 58.5725 23.4101 58.9368 24.5641C58.9964 24.7107 59.056 24.851 59.1156 24.9976C58.6653 24.6342 58.1487 24.3091 57.7646 24.3792C56.1089 24.6916 56.334 27.5477 56.3473 28.7527C56.3605 30.0915 56.5658 31.5068 57.4334 32.5142C57.844 32.9859 58.3672 33.4322 58.6653 33.9869C58.9567 34.5224 59.0759 35.0834 59.4269 35.5743C59.9964 36.3649 61.2548 36.3139 62.3873 36.0652C62.4734 36.4669 62.5131 36.8813 62.533 37.2893C62.6191 38.7174 62.9634 40.0626 63.7516 41.2739C64.0893 41.7839 64.4602 42.2876 64.8112 42.7849C65.0165 45.029 65.4602 49.5874 65.5728 50.5182C65.7185 51.7422 65.1622 52.1311 63.9304 52.6922C63.8178 52.7368 63.6986 52.7878 63.586 52.8388C61.566 53.7951 59.5196 54.7195 57.5261 55.7587C54.8042 57.1804 52.1286 58.7041 49.4264 60.2023C48.0555 60.961 46.6714 61.6687 45.1481 61.9237C44.5123 62.0321 43.8567 62.0958 43.2275 62.2743C41.8566 62.6824 40.3797 62.9055 39.1677 63.5813C35.0484 65.8955 31.4257 68.1652 28.6839 72.9021C25.4387 78.506 23.0479 84.977 24.0082 91.4735C24.028 91.6456 24.0214 91.8305 24.0082 92.0027C23.9022 93.163 24.1009 94.2978 24.3261 95.4326C24.5512 96.5674 24.6704 97.7341 24.2929 98.8625C22.3392 104.741 20.6173 110.759 19.5378 116.854C18.6834 121.654 18.3126 126.5 19.0874 131.364C19.1801 131.951 19.0742 132.467 18.849 132.996C17.7364 135.61 16.8688 138.294 16.2794 141.061C15.1469 146.397 14.7561 151.804 14.4647 157.223C14.3323 159.709 14.2793 162.195 14.1137 164.682C13.9084 167.761 13.6302 170.828 13.3653 173.901C13.1931 175.909 12.8885 177.911 12.809 179.919C12.7494 181.487 12.4183 182.871 11.3454 184.107C9.90161 185.765 8.57705 187.518 7.13991 189.176C6.53723 189.871 5.96105 190.553 5.72925 191.433C5.10009 193.817 4.47092 196.195 3.88812 198.592C3.5636 199.918 3.28544 201.264 2.59667 202.475C1.8483 203.801 1.05356 205.102 0.265448 206.409C-0.211394 207.186 0.0204043 207.798 0.947596 207.996C2.37812 208.289 3.78877 208.302 4.96101 207.282C5.68289 206.651 6.35842 205.962 7.04057 205.28C7.25912 205.057 7.43793 204.789 7.63 204.541C7.6896 204.566 7.74921 204.592 7.80881 204.617C7.78232 204.929 7.76907 205.235 7.72934 205.554C7.45118 207.964 7.13329 210.38 6.88162 212.79C6.66307 214.888 6.4975 216.979 6.34517 219.083C6.27894 219.905 6.29881 220.74 6.31206 221.563C6.31206 221.952 6.58359 222.219 6.96109 222.347C7.3121 222.462 7.50416 222.219 7.73596 222.009C9.10026 220.785 9.75591 219.197 10.2063 217.521C11.0142 214.48 11.7494 211.42 12.5309 208.366C12.5838 208.174 12.7163 207.996 12.809 207.811C13.0077 208.015 13.0408 208.181 13.0342 208.34C13.0077 209.112 12.968 209.883 12.9282 210.655C12.8289 212.58 12.7163 214.505 12.6236 216.424C12.6236 216.424 12.0871 223.361 13.4249 223.667C14.0077 223.801 14.3852 223.877 14.7429 223.475C14.9681 223.214 15.1535 222.902 15.2595 222.576C16.127 220.058 16.4449 217.432 16.9152 214.837C17.1734 213.383 17.3523 211.904 17.5642 210.438C17.6569 210.667 17.7165 210.897 17.7165 211.126C17.7364 213.702 17.7298 216.284 17.7827 218.866C17.8026 219.778 17.9351 220.689 18.0741 221.595C18.1602 222.168 18.5576 222.481 19.1139 222.551C19.5047 222.602 20.061 222.258 20.2597 221.799C20.3656 221.556 20.4054 221.289 20.4451 221.027C20.6438 219.79 20.8955 212.134 21.1206 210.699C21.4981 211.598 21.7167 218.732 22.028 219.433C22.4584 220.415 22.4717 220.402 23.5843 220.249C23.5843 220.249 24.2863 219.822 24.2929 218.821L24.2731 218.872Z"/>
</mask>
<path fill-rule="evenodd" clip-rule="evenodd" d="M24.2731 218.872C24.2731 217.597 24.24 216.322 24.2267 215.047C24.2002 211.987 23.8492 208.92 24.6373 205.86C25.0811 204.126 24.995 202.271 25.1274 200.473C25.1738 199.88 25.1076 199.281 25.1672 198.694C25.4056 196.335 25.5711 193.977 25.4652 191.605C25.3658 189.342 25.1936 187.091 24.4651 184.936C24.187 184.133 24.2333 183.47 24.5181 182.73C25.5778 179.976 26.7235 177.254 27.6375 174.455C29.7965 167.844 31.8827 161.201 33.9556 154.564C35.2603 150.395 36.0881 146.161 35.9226 141.775C35.8828 140.659 36.055 139.537 36.0881 138.409C36.1279 137.045 36.1544 135.687 36.108 134.329C36.0815 133.506 36.2007 132.767 36.6378 132.034C37.9094 129.898 38.8565 127.609 39.7373 125.295C40.6711 122.84 41.4062 120.335 42.0222 117.797C42.095 117.479 42.1149 117.115 42.4791 116.835C42.9295 117.81 43.3534 118.722 43.764 119.646C43.8434 119.831 43.8368 120.054 43.8633 120.258C44.2541 123.79 44.6249 127.329 45.0157 130.867C45.2342 132.843 45.5852 134.807 45.7044 136.777C45.8369 139.027 45.7574 141.284 45.8038 143.535C45.8634 146.321 45.923 149.107 46.0621 151.886C46.1217 152.97 46.3998 154.048 46.625 155.119C46.7906 155.909 46.9032 156.668 46.6051 157.471C46.3005 158.275 46.0886 159.122 45.9031 159.951C45.115 163.509 44.5057 167.066 45.413 170.694C45.4991 171.057 45.4859 171.472 45.413 171.841C44.9826 173.996 44.5057 176.145 44.0819 178.293C42.7109 185.3 41.3202 192.325 40.0552 199.357C39.4327 202.819 39.0287 206.338 38.6644 209.845C38.1743 214.626 37.9756 219.427 38.0816 224.234C38.1478 227.199 38.267 230.157 38.4724 233.115C38.5849 234.702 38.9889 236.277 39.1545 237.858C39.638 242.461 40.5387 247.007 40.9427 251.61C41.2142 254.702 41.3599 257.749 40.797 260.822C40.0287 265.004 39.777 269.238 39.9426 273.477C39.9757 274.383 39.8631 275.224 39.5386 276.078C38.1213 279.834 37.3663 283.793 36.9756 287.701C35.5053 302.574 35.9027 317.404 36.9425 332.43C36.9425 332.43 37.4326 344.11 37.4326 346.756C37.4326 349.401 36.5849 353.227 35.3199 355.732C31.737 362.834 25.5778 369.337 20.2862 375.623C17.5377 378.894 17.1337 378.384 15.7827 379.417C14.5243 380.373 14.3521 380.883 13.6435 381.967C12.968 383 13.3587 383.752 13.3587 383.752C12.5507 385.856 14.0674 386.124 14.0674 386.124C15.0409 387.839 16.6569 387.297 16.6569 387.297C18.9219 389.477 20.2729 387.737 20.2729 387.737C22.8624 390.618 25.5314 389.993 28.6044 387.431C31.6774 384.861 31.3926 385.951 33.0549 385.32C40.2141 382.624 40.5519 375.821 46.731 372.468C53.5525 368.77 55.3009 364.76 54.4995 362.19C53.6915 359.621 53.2081 355.955 53.2081 355.955C53.9366 355.49 54.175 354.011 53.771 352.532C52.4729 347.795 52.963 347.234 53.9564 337.448C55.4466 328.548 56.7049 318.436 61.0958 310.735C62.6654 307.981 63.6986 304.793 64.0761 301.542C64.3476 299.119 64.3344 296.69 64.2615 294.261C64.1754 291.265 63.8244 288.294 63.3741 285.329C63.0429 283.13 62.7118 280.93 62.374 278.737C62.3012 278.252 62.3674 277.819 62.672 277.392C63.5264 276.174 64.0761 274.823 64.4801 273.42C65.2616 270.666 65.7119 267.861 65.7318 264.998C65.745 263.455 65.7914 261.912 65.9305 260.382C66.0298 259.216 66.0629 258.023 66.659 256.927C69.2419 252.164 71.3082 247.185 72.9043 242.034C74.454 237.068 75.5931 231.993 76.7852 226.937C77.7786 222.698 78.7853 218.452 79.7787 214.225C79.8449 214.633 79.8979 215.06 80.0039 215.481C80.3152 216.749 80.6529 218.012 80.9841 219.274C82.0768 223.526 83.2093 227.791 84.2491 232.05C86.3552 240.631 89.3156 249.092 93.7065 256.87C93.6932 256.87 93.6932 256.87 93.6733 256.882C93.8124 257.137 93.9316 257.405 94.0376 257.673C94.0707 257.819 94.1171 257.96 94.1369 258.106C94.4615 260.931 94.7462 262.85 94.7794 263.678H94.7926C94.7992 264.118 94.8191 264.552 94.8191 264.998C94.8323 267.121 95.0973 269.984 96.0774 273.42C96.4748 274.823 97.0311 276.18 97.8854 277.392C98.1172 277.723 98.9848 279.151 97.7397 286.196C97.2165 289.148 97.1503 292.151 97.1702 295.147C97.1834 297.583 97.2497 300.005 97.6139 302.421C98.104 305.654 99.2696 308.816 100.912 311.513C105.422 318.895 106.369 328.962 108.051 337.62C109.389 347.368 109.674 347.521 108.548 352.283C108.197 353.775 108.773 355.617 109.515 356.057C109.515 356.057 109.171 358.493 108.78 361.151C108.104 365.869 108.879 368.496 116.045 372.557C122.244 376.07 122.443 382.949 129.854 385.448C131.536 386.015 131.43 385.167 134.37 387.883C137.457 390.727 140.006 390.688 142.49 387.724C142.49 387.724 143.98 389.222 146.04 387.328C146.04 387.328 147.967 387.749 148.662 386.098C148.662 386.098 150.437 385.448 149.192 383.777C149.192 383.777 150.417 383.095 147.676 380.003C146.894 379.13 145.543 379.48 142.695 375.891C138.616 370.759 134.602 365.531 130.741 360.284C128.933 357.823 127.039 355.802 126.291 353.023C125.542 350.243 125.178 349.892 125.132 347.291C125.012 340.533 125.33 333.552 125.502 326.686C125.416 313.597 125.582 300.694 124.204 287.714C123.92 285.004 121.833 277.66 121.476 276.761C121.019 275.377 120.588 273.943 120.608 273.477C120.774 269.238 120.522 265.004 119.754 260.822C119.211 257.845 119.032 254.498 119.251 251.501C119.363 250.035 119.443 248.55 119.575 247.077C119.734 245.368 120.012 243.666 120.218 241.958C120.469 239.988 120.721 238.018 120.939 236.041C121.151 234.192 121.429 232.331 121.489 230.469C121.588 227.536 121.535 224.604 121.522 221.678C121.502 216.781 121.125 211.898 120.41 207.059C119.814 202.979 119.184 198.898 118.409 194.856C117.602 190.668 116.621 186.498 115.694 182.329C114.84 178.478 113.939 174.627 113.085 170.777C113.019 170.471 113.012 170.12 113.085 169.814C113.588 167.391 113.509 164.969 113.045 162.572C112.694 160.704 112.197 158.867 111.72 157.031C111.528 156.266 111.482 155.527 111.628 154.749C111.807 153.754 112.038 152.753 112.065 151.753C112.118 149.655 112.071 147.545 112.052 145.441C112.025 143.688 111.906 141.941 111.965 140.194C112.058 137.504 112.23 134.807 112.449 132.116C112.78 128.036 113.177 123.962 113.555 119.895C113.608 119.34 114.482 117.504 114.913 117.032C114.999 117.306 115.078 117.561 115.144 117.816C116.343 122.681 118.045 127.373 120.542 131.772C120.8 132.231 120.92 132.697 120.893 133.219C120.853 133.984 120.794 134.756 120.82 135.521C120.886 137.478 121.125 139.429 121.072 141.38C120.973 145.428 121.668 149.355 122.827 153.219C123.688 156.062 124.635 158.88 125.522 161.717C127.118 166.83 128.536 171.988 130.516 176.98C131.258 178.835 131.927 180.716 132.648 182.571C132.841 183.062 132.874 183.508 132.635 184.018C132.403 184.522 132.278 185.089 132.165 185.638C131.602 188.5 131.357 191.388 131.569 194.302C131.682 195.755 131.821 197.196 131.854 198.65C131.92 201.493 131.92 204.337 132.807 207.091C132.841 207.205 132.854 207.327 132.854 207.441C132.854 209.634 132.854 211.834 132.827 214.027C132.814 215.385 132.708 216.749 132.715 218.114C132.715 218.114 133.231 222.015 134.854 219.153C135.119 218.681 135.298 218.177 135.51 217.687C135.635 217.381 136.139 210.119 136.258 209.819C136.596 211.101 136.384 219.28 136.576 220.511C136.616 220.74 136.649 220.983 136.741 221.199C136.933 221.639 137.516 222.041 137.861 222.009C138.384 221.952 138.861 221.556 138.953 220.989C139.086 220.179 139.232 219.35 139.251 218.528C139.298 215.895 139.271 213.249 139.298 210.61C139.298 210.38 139.357 210.144 139.404 209.794C139.794 212.185 140.112 214.448 140.536 216.686C140.881 218.49 141.324 220.281 141.768 222.06C142.053 223.195 142.682 223.354 143.801 222.984C145.245 222.513 144.046 207.205 144.046 207.205C144.47 207.46 144.483 207.754 144.55 208.028C144.854 209.297 145.132 210.578 145.47 211.834C145.868 213.332 146.364 214.798 146.702 216.303C147.133 218.222 147.788 220.001 149.272 221.41C149.497 221.627 149.669 221.894 150.033 221.786C150.411 221.665 150.656 221.403 150.715 221.014C150.742 220.874 150.742 220.715 150.735 220.568C150.583 218.209 150.497 215.838 150.278 213.479C149.974 210.24 149.576 207.001 149.205 203.705C149.47 204.037 149.696 204.343 149.947 204.63C150.384 205.133 150.808 205.637 151.285 206.096C152.596 207.371 154.166 207.83 156.007 207.441C156.954 207.237 157.259 206.593 156.769 205.816C156.126 204.77 155.53 203.699 154.875 202.653C154 201.27 153.543 199.74 153.186 198.165C152.742 196.195 152.259 194.238 151.782 192.274C151.391 190.661 150.596 189.297 149.424 188.035C147.795 186.269 146.384 184.312 144.921 182.405C144.636 182.042 144.477 181.545 144.424 181.092C144.291 180.155 144.285 179.198 144.192 178.255C143.927 175.749 143.576 173.25 143.384 170.738C143.073 166.512 142.881 162.272 142.609 158.039C142.384 154.609 142.185 151.179 141.874 147.755C141.384 142.394 140.271 137.147 138.099 132.142C137.947 131.785 137.92 131.339 137.953 130.943C138.039 129.942 138.251 128.948 138.304 127.947C138.47 124.829 138.357 121.705 137.9 118.626C136.88 111.836 135.019 105.123 132.867 98.6012C132.682 98.021 132.556 97.3835 132.569 96.7778C132.609 95.8087 132.827 94.8461 132.907 93.877C132.993 92.8187 132.927 91.7413 133.066 90.6957C133.397 88.3177 133.311 85.9588 132.88 83.6127C132.192 79.7938 130.397 75.6116 128.066 71.8183C125.814 68.146 122.92 66.0741 119.701 64.0594C118.191 63.1223 116.621 62.4656 114.886 62.0129C113.124 61.5539 111.27 61.5412 109.555 60.8016C108.813 60.4829 108.012 60.3044 107.29 59.9346C104.27 58.4045 101.303 56.7724 98.2696 55.2806C96.0576 54.1904 93.7793 53.2532 91.5077 52.3224C90.7063 51.9909 90.6335 52.061 90.554 51.2832C90.1103 46.8332 91.0838 42.1473 91.0838 42.0007C91.0838 41.9688 91.0706 41.9497 91.064 41.9242C91.1037 41.8732 91.1434 41.8222 91.1832 41.7712C91.819 40.7894 92.3024 39.7566 92.4812 38.6026C92.6071 37.7929 92.7329 36.9833 92.8521 36.1672C93.7992 36.3011 94.7462 36.2246 95.2165 35.5743C95.5675 35.0834 95.6867 34.5224 95.9781 33.9869C96.2761 33.4258 96.7927 32.9859 97.2099 32.5142C98.0841 31.5132 98.2828 30.0915 98.3027 28.7527C98.3093 27.5477 98.5411 24.6916 96.8854 24.3792C96.5278 24.3154 96.0575 24.5896 95.6337 24.9211C95.6337 24.902 95.6337 24.8828 95.6403 24.8637C95.7993 23.6715 95.7728 22.4666 96.0708 21.2871C97.1371 17.0475 96.4682 12.8589 94.5343 9.33334C92.0375 4.7877 87.4082 1.35138 81.6199 0.344076C67.8378 -2.05306 56.3142 7.36972 58.003 21.0704C58.1487 22.2689 58.5725 23.4101 58.9368 24.5641C58.9964 24.7107 59.056 24.851 59.1156 24.9976C58.6653 24.6342 58.1487 24.3091 57.7646 24.3792C56.1089 24.6916 56.334 27.5477 56.3473 28.7527C56.3605 30.0915 56.5658 31.5068 57.4334 32.5142C57.844 32.9859 58.3672 33.4322 58.6653 33.9869C58.9567 34.5224 59.0759 35.0834 59.4269 35.5743C59.9964 36.3649 61.2548 36.3139 62.3873 36.0652C62.4734 36.4669 62.5131 36.8813 62.533 37.2893C62.6191 38.7174 62.9634 40.0626 63.7516 41.2739C64.0893 41.7839 64.4602 42.2876 64.8112 42.7849C65.0165 45.029 65.4602 49.5874 65.5728 50.5182C65.7185 51.7422 65.1622 52.1311 63.9304 52.6922C63.8178 52.7368 63.6986 52.7878 63.586 52.8388C61.566 53.7951 59.5196 54.7195 57.5261 55.7587C54.8042 57.1804 52.1286 58.7041 49.4264 60.2023C48.0555 60.961 46.6714 61.6687 45.1481 61.9237C44.5123 62.0321 43.8567 62.0958 43.2275 62.2743C41.8566 62.6824 40.3797 62.9055 39.1677 63.5813C35.0484 65.8955 31.4257 68.1652 28.6839 72.9021C25.4387 78.506 23.0479 84.977 24.0082 91.4735C24.028 91.6456 24.0214 91.8305 24.0082 92.0027C23.9022 93.163 24.1009 94.2978 24.3261 95.4326C24.5512 96.5674 24.6704 97.7341 24.2929 98.8625C22.3392 104.741 20.6173 110.759 19.5378 116.854C18.6834 121.654 18.3126 126.5 19.0874 131.364C19.1801 131.951 19.0742 132.467 18.849 132.996C17.7364 135.61 16.8688 138.294 16.2794 141.061C15.1469 146.397 14.7561 151.804 14.4647 157.223C14.3323 159.709 14.2793 162.195 14.1137 164.682C13.9084 167.761 13.6302 170.828 13.3653 173.901C13.1931 175.909 12.8885 177.911 12.809 179.919C12.7494 181.487 12.4183 182.871 11.3454 184.107C9.90161 185.765 8.57705 187.518 7.13991 189.176C6.53723 189.871 5.96105 190.553 5.72925 191.433C5.10009 193.817 4.47092 196.195 3.88812 198.592C3.5636 199.918 3.28544 201.264 2.59667 202.475C1.8483 203.801 1.05356 205.102 0.265448 206.409C-0.211394 207.186 0.0204043 207.798 0.947596 207.996C2.37812 208.289 3.78877 208.302 4.96101 207.282C5.68289 206.651 6.35842 205.962 7.04057 205.28C7.25912 205.057 7.43793 204.789 7.63 204.541C7.6896 204.566 7.74921 204.592 7.80881 204.617C7.78232 204.929 7.76907 205.235 7.72934 205.554C7.45118 207.964 7.13329 210.38 6.88162 212.79C6.66307 214.888 6.4975 216.979 6.34517 219.083C6.27894 219.905 6.29881 220.74 6.31206 221.563C6.31206 221.952 6.58359 222.219 6.96109 222.347C7.3121 222.462 7.50416 222.219 7.73596 222.009C9.10026 220.785 9.75591 219.197 10.2063 217.521C11.0142 214.48 11.7494 211.42 12.5309 208.366C12.5838 208.174 12.7163 207.996 12.809 207.811C13.0077 208.015 13.0408 208.181 13.0342 208.34C13.0077 209.112 12.968 209.883 12.9282 210.655C12.8289 212.58 12.7163 214.505 12.6236 216.424C12.6236 216.424 12.0871 223.361 13.4249 223.667C14.0077 223.801 14.3852 223.877 14.7429 223.475C14.9681 223.214 15.1535 222.902 15.2595 222.576C16.127 220.058 16.4449 217.432 16.9152 214.837C17.1734 213.383 17.3523 211.904 17.5642 210.438C17.6569 210.667 17.7165 210.897 17.7165 211.126C17.7364 213.702 17.7298 216.284 17.7827 218.866C17.8026 219.778 17.9351 220.689 18.0741 221.595C18.1602 222.168 18.5576 222.481 19.1139 222.551C19.5047 222.602 20.061 222.258 20.2597 221.799C20.3656 221.556 20.4054 221.289 20.4451 221.027C20.6438 219.79 20.8955 212.134 21.1206 210.699C21.4981 211.598 21.7167 218.732 22.028 219.433C22.4584 220.415 22.4717 220.402 23.5843 220.249C23.5843 220.249 24.2863 219.822 24.2929 218.821L24.2731 218.872Z" fill="#6F6F6F" stroke="white" stroke-opacity="0.1" stroke-width="2" mask="url(#path-1-inside-1_20_1327)"/>
</g>
<defs>
<clipPath id="clip0_20_1327">
<rect width="157" height="390" fill="white"/>
</clipPath>
</defs>
</svg>
