<svg width="45" height="33" viewBox="0 0 45 33" fill="none" xmlns="http://www.w3.org/2000/svg">
<path d="M39.375 7.65634H39.2256C39.0927 7.25412 38.8706 6.88711 38.5759 6.58273C38.2813 6.27835 37.9217 6.04447 37.524 5.89853L23.4615 0.800873C22.8403 0.575816 22.1597 0.575816 21.5385 0.800873L7.47598 5.91435C7.07828 6.06029 6.71869 6.29417 6.42405 6.59855C6.12942 6.90293 5.90734 7.26993 5.77441 7.67216H5.625C4.13589 7.67216 2.70755 8.26262 1.65311 9.31409C0.598669 10.3656 0.00418811 11.7922 0 13.2813L0 17.5001C0 18.9919 0.592632 20.4227 1.64752 21.4776C2.70242 22.5325 4.13316 23.1251 5.625 23.1251H6.52676C7.67637 25.6634 9.9123 27.8923 13.1537 29.6923C16.8451 31.7454 20.8037 32.6806 21.9287 32.9091C22.3054 32.9888 22.6946 32.9888 23.0713 32.9091C24.1963 32.6735 28.1514 31.7454 31.8463 29.6923C35.0877 27.8923 37.3236 25.6634 38.4732 23.1251H39.375C40.8668 23.1251 42.2976 22.5325 43.3525 21.4776C44.4074 20.4227 45 18.9919 45 17.5001V13.2813C45 11.7895 44.4074 10.3588 43.3525 9.30387C42.2976 8.24898 40.8668 7.65634 39.375 7.65634ZM5.625 20.3126C4.87908 20.3126 4.16371 20.0163 3.63626 19.4888C3.10882 18.9614 2.8125 18.246 2.8125 17.5001V13.2813C2.8125 12.5354 3.10882 11.8201 3.63626 11.2926C4.16371 10.7652 4.87908 10.4688 5.625 10.4688V18.9327C5.6258 19.3942 5.65692 19.8552 5.71816 20.3126H5.625ZM29.5312 20.3126H15.4688C15.0958 20.3126 14.7381 20.1644 14.4744 19.9007C14.2107 19.637 14.0625 19.2793 14.0625 18.9063C14.0625 18.5334 14.2107 18.1757 14.4744 17.912C14.7381 17.6483 15.0958 17.5001 15.4688 17.5001H29.5312C29.9042 17.5001 30.2619 17.6483 30.5256 17.912C30.7893 18.1757 30.9375 18.5334 30.9375 18.9063C30.9375 19.2793 30.7893 19.637 30.5256 19.9007C30.2619 20.1644 29.9042 20.3126 29.5312 20.3126ZM29.5312 14.6876H15.4688C15.0958 14.6876 14.7381 14.5394 14.4744 14.2757C14.2107 14.012 14.0625 13.6543 14.0625 13.2813C14.0625 12.9084 14.2107 12.5507 14.4744 12.287C14.7381 12.0233 15.0958 11.8751 15.4688 11.8751H29.5312C29.9042 11.8751 30.2619 12.0233 30.5256 12.287C30.7893 12.5507 30.9375 12.9084 30.9375 13.2813C30.9375 13.6543 30.7893 14.012 30.5256 14.2757C30.2619 14.5394 29.9042 14.6876 29.5312 14.6876ZM42.1875 17.5001C42.1875 18.246 41.8912 18.9614 41.3637 19.4888C40.8363 20.0163 40.1209 20.3126 39.375 20.3126H39.2818C39.3431 19.8552 39.3742 19.3942 39.375 18.9327V10.4688C40.1209 10.4688 40.8363 10.7652 41.3637 11.2926C41.8912 11.8201 42.1875 12.5354 42.1875 13.2813V17.5001Z" fill="white" fill-opacity="0.15"/>
</svg>
