<svg width="29" height="41" viewBox="0 0 29 41" fill="none" xmlns="http://www.w3.org/2000/svg">
<path fill-rule="evenodd" clip-rule="evenodd" d="M14.5 34.7446C22.3931 34.7446 28.7917 28.3664 28.7917 20.4998C28.7917 12.6333 22.3931 6.25513 14.5 6.25513C6.60696 6.25513 0.208374 12.6333 0.208374 20.4998C0.208374 28.3664 6.60696 34.7446 14.5 34.7446ZM14.5 13.2315C15.2902 13.2315 15.9292 13.8685 15.9292 14.6566V19.8935L19.302 23.1254C19.4375 23.2548 19.5461 23.4096 19.6215 23.5811C19.697 23.7525 19.7378 23.9372 19.7416 24.1245C19.7454 24.3118 19.7121 24.498 19.6437 24.6723C19.5752 24.8467 19.473 25.0058 19.3429 25.1405C19.0795 25.4128 18.719 25.5697 18.3403 25.577C17.9615 25.5843 17.5953 25.4413 17.3216 25.1793L13.5098 21.5248C13.3714 21.3923 13.2612 21.2332 13.1858 21.0571C13.1104 20.881 13.0713 20.6914 13.0709 20.4998V14.6566C13.0709 13.8685 13.7099 13.2315 14.5 13.2315Z" fill="white" fill-opacity="0.15"/>
<path d="M10.1268 0.234335C11.262 0.0832517 12.6891 0.083252 14.4 0.083252H14.6001C16.311 0.083252 17.7382 0.0832517 18.8733 0.234335C20.0677 0.395627 21.1498 0.748835 22.0175 1.61246C22.8852 2.47813 23.2384 3.55408 23.3997 4.74642C23.4487 5.11596 23.4814 5.51817 23.5059 5.951C20.7986 4.28277 17.6801 3.40186 14.5001 3.40709C11.3208 3.40213 8.20297 4.28304 5.49634 5.951C5.51675 5.51817 5.55146 5.11596 5.60046 4.74642C5.76175 3.55408 6.11496 2.47813 6.98267 1.61246C7.85242 0.748835 8.93246 0.395627 10.1268 0.234335ZM22.0175 39.3853C22.8852 38.5217 23.2384 37.4457 23.3997 36.2534C23.45 35.8533 23.4854 35.4515 23.5059 35.0488C20.7986 36.7171 17.6801 37.598 14.5001 37.5927C11.321 37.5983 8.20319 36.7181 5.49634 35.0509C5.51675 35.4817 5.55146 35.8839 5.60046 36.2534C5.76175 37.4457 6.11496 38.5217 6.98267 39.3874C7.85242 40.251 8.93246 40.6042 10.1268 40.7655C11.262 40.9166 12.6891 40.9166 14.4 40.9166H14.6001C16.311 40.9166 17.7382 40.9166 18.8733 40.7655C20.0677 40.6042 21.1498 40.249 22.0175 39.3853Z" fill="white" fill-opacity="0.15"/>
</svg>
