<svg width="43" height="52" viewBox="0 0 43 52" fill="none" xmlns="http://www.w3.org/2000/svg">
<path fill-rule="evenodd" clip-rule="evenodd" d="M7.43746 22.1375V17C7.43746 12.5245 8.91904 8.23225 11.5563 5.06757C14.1935 1.9029 17.7704 0.125 21.5 0.125C25.2296 0.125 28.8064 1.9029 31.4437 5.06757C34.0809 8.23225 35.5625 12.5245 35.5625 17V22.1375C37.8854 22.345 39.3958 22.87 40.5021 24.1975C42.3333 26.3925 42.3333 29.93 42.3333 37C42.3333 44.07 42.3333 47.6075 40.5021 49.8025C38.6729 52 35.725 52 29.8333 52H13.1666C7.27496 52 4.32704 52 2.49788 49.8025C0.666626 47.6075 0.666626 44.07 0.666626 37C0.666626 29.93 0.666626 26.3925 2.49788 24.1975C3.60204 22.87 5.11454 22.345 7.43746 22.1375ZM10.5625 17C10.5625 13.519 11.7148 10.1806 13.766 7.71922C15.8172 5.25781 18.5992 3.875 21.5 3.875C24.4008 3.875 27.1828 5.25781 29.234 7.71922C31.2851 10.1806 32.4375 13.519 32.4375 17V22.01C31.6396 22 30.7729 22 29.8333 22H13.1666C12.225 22 11.3604 22 10.5625 22.01V17Z" fill="#6F6F6F"/>
</svg>
